# xmcd
#
# Track frame offsets:
#	150
#	15947
#	30442
#	49877
#	61995
#	74887
#	88205
#	107812
#	121487
#	139490
#	153290
#	172677
#	184885
#	196575
#	212675
#	223265
#
# Disc length: 3194 seconds
#
# Revision: 1
# Processed by: cddbd v1.5.2PL0 Copyright (c) Steve Scherf et al.
# Submitted via: EZCDAudioConverter 8.3.2.1
#
DISCID=e70c7810
DTITLE=MATS RÅDBERG and RANKARNA - 16 BÄSTA COUNTRY HITS
DYEAR=1994
DGENRE=
TTITLE0=EN SPELMANS LÖN
TTITLE1=LOVE ME TENDER
TTITLE2=VÄN PÅ VÄGEN
TTITLE3=DU HAR BEKYMMER
TTITLE4=UTAN DEJ
TTITLE5=DET HÄR ÄR JAG
TTITLE6=AKTA DEJ FÖR TOMMY
TTITLE7=HAN BOR I STOCKHOLM
TTITLE8=I'M THE SINGER YOU'RE THE SONG
TTITLE9=KUNGSGATANS NEON
TTITLE10=DET ÄR INTE LÄTT ATT VA' ÖDMJUK
TTITLE11=PÅ VÄG
TTITLE12=QUA LA LINTA
TTITLE13=GÖR DET IGEN
TTITLE14=PRÖVA MIG
TTITLE15=KONTO KURT
EXTD=
EXTT0=
EXTT1=
EXTT2=
EXTT3=
EXTT4=
EXTT5=
EXTT6=
EXTT7=
EXTT8=
EXTT9=
EXTT10=
EXTT11=
EXTT12=
EXTT13=
EXTT14=
EXTT15=
PLAYORDER=
